<svg width="200" height="35" viewBox="0 0 200 35" fill="none"
    xmlns="http://www.w3.org/2000/svg">
    <path d="M0 .516V13.34h4.277V4.792h8.547V.516H0ZM4.277 30.127v-8.548H0v12.824h12.825v-4.276H4.277ZM186.32.516v4.276h8.548v8.548h4.277V.516H186.32ZM194.868 21.579v8.547h-8.548v4.277h12.825V21.58h-4.277Z" fill="#FF9100"></path>
    <path d="M61.082 8.684v4.423h-.84c-5.352 0-8.625 3.376-8.625 8.64v12.656h-4.265V9.063h4.265v4.375a9.77 9.77 0 0 1 8.624-4.754h.841ZM65.447 24.368V9.063h4.266v14.708c0 4.271 2.871 7.104 7.186 7.104 4.314 0 7.185-2.833 7.185-7.104V9.063h4.266v15.305C88.35 30.778 83.786 35 76.899 35c-6.888 0-11.452-4.222-11.452-10.632ZM134.426 18.056v16.347h-4.26V19.25c0-4.027-2.578-6.659-6.594-6.659-4.114 0-6.893 2.687-6.893 6.757v15.055h-4.26V19.25c0-4.027-2.578-6.659-6.594-6.659-4.114 0-6.893 2.687-6.893 6.757v15.055h-4.26V9.063h4.26v3.42c1.835-2.584 4.711-4.022 8.282-4.022 3.962 0 6.99 1.834 8.477 4.966 1.884-3.18 5.102-4.966 9.167-4.966 5.802 0 9.568 3.799 9.568 9.584M140.748 9.063h4.266v25.34h-4.266V9.063ZM18.652.516v4.276h26.414V.516H18.652ZM34.11 9.063h-4.499v25.335h4.5V9.063ZM177.128.543v33.855h-4.271V29.85a11.58 11.58 0 0 1-9.834 5.161c-7.262-.016-12.662-5.704-12.662-13.275 0-7.57 5.428-13.258 12.662-13.258a11.573 11.573 0 0 1 9.834 5.166V.543h4.271Zm-4.271 21.22c0-5.215-3.875-9.134-9.036-9.134a8.889 8.889 0 0 0-9.091 9.107 8.878 8.878 0 0 0 .622 3.526 8.878 8.878 0 0 0 4.946 4.973 8.891 8.891 0 0 0 3.523.64c5.161 0 9.036-3.923 9.036-9.139v.027ZM140.021 2.833a2.851 2.851 0 0 1 4.865-2.015 2.85 2.85 0 1 1-4.865 2.015Z" fill="#fff"></path>
</svg>