<svg xmlns="http://www.w3.org/2000/svg" width="60" viewBox="0 0 60 60" height="60" version="1.0"><defs><clipPath id="a"><path d="M 33.328125 4.078125 L 58.828125 4.078125 L 58.828125 55.828125 L 33.328125 55.828125 Z M 33.328125 4.078125"/></clipPath><clipPath id="b"><path d="M 25.371094 4.078125 L 50.871094 4.078125 L 50.871094 55.828125 L 25.371094 55.828125 Z M 25.371094 4.078125"/></clipPath><clipPath id="c"><path d="M 17.414062 4.078125 L 42.914062 4.078125 L 42.914062 55.828125 L 17.414062 55.828125 Z M 17.414062 4.078125"/></clipPath><clipPath id="d"><path d="M 9.457031 4.078125 L 34.957031 4.078125 L 34.957031 55.828125 L 9.457031 55.828125 Z M 9.457031 4.078125"/></clipPath><clipPath id="e"><path d="M 1.5 4.078125 L 27 4.078125 L 27 55.828125 L 1.5 55.828125 Z M 1.5 4.078125"/></clipPath></defs><g clip-path="url(#a)"><path fill="#001E4B" d="M 53.878906 29.964844 L 34.253906 52.300781 C 33.542969 53.109375 33.617188 54.351562 34.414062 55.074219 C 35.207031 55.792969 36.429688 55.71875 37.140625 54.914062 L 57.902344 31.28125 C 58.550781 30.539062 58.554688 29.425781 57.910156 28.679688 L 37.148438 4.742188 C 36.769531 4.300781 36.234375 4.078125 35.699219 4.078125 C 35.242188 4.078125 34.789062 4.238281 34.421875 4.566406 C 33.617188 5.28125 33.542969 6.519531 34.246094 7.335938 Z M 53.878906 29.964844"/></g><g clip-path="url(#b)"><path fill="#001E4B" d="M 45.921875 29.964844 L 26.296875 52.300781 C 25.585938 53.109375 25.65625 54.351562 26.453125 55.074219 C 27.25 55.792969 28.472656 55.71875 29.183594 54.914062 L 49.945312 31.28125 C 50.59375 30.539062 50.597656 29.425781 49.953125 28.679688 L 29.191406 4.742188 C 28.808594 4.300781 28.273438 4.078125 27.742188 4.078125 C 27.285156 4.078125 26.832031 4.238281 26.464844 4.566406 C 25.660156 5.28125 25.582031 6.519531 26.289062 7.335938 Z M 45.921875 29.964844"/></g><g clip-path="url(#c)"><path fill="#001E4B" d="M 37.964844 29.964844 L 18.339844 52.300781 C 17.628906 53.109375 17.699219 54.351562 18.496094 55.074219 C 19.292969 55.792969 20.515625 55.71875 21.226562 54.914062 L 41.988281 31.28125 C 42.636719 30.539062 42.640625 29.425781 41.996094 28.679688 L 21.234375 4.742188 C 20.851562 4.300781 20.316406 4.078125 19.785156 4.078125 C 19.328125 4.078125 18.871094 4.238281 18.507812 4.566406 C 17.703125 5.28125 17.625 6.519531 18.332031 7.335938 Z M 37.964844 29.964844"/></g><g clip-path="url(#d)"><path fill="#001E4B" d="M 30.007812 29.964844 L 10.382812 52.300781 C 9.671875 53.109375 9.742188 54.351562 10.539062 55.074219 C 11.335938 55.792969 12.558594 55.71875 13.269531 54.914062 L 34.03125 31.28125 C 34.679688 30.539062 34.683594 29.425781 34.039062 28.679688 L 13.273438 4.742188 C 12.894531 4.300781 12.359375 4.078125 11.828125 4.078125 C 11.371094 4.078125 10.914062 4.238281 10.550781 4.566406 C 9.746094 5.28125 9.667969 6.519531 10.375 7.335938 Z M 30.007812 29.964844"/></g><g clip-path="url(#e)"><path fill="#001E4B" d="M 22.046875 29.964844 L 2.425781 52.300781 C 1.714844 53.109375 1.785156 54.351562 2.582031 55.074219 C 3.378906 55.792969 4.601562 55.71875 5.3125 54.914062 L 26.074219 31.28125 C 26.722656 30.539062 26.726562 29.425781 26.082031 28.679688 L 5.316406 4.742188 C 4.9375 4.300781 4.402344 4.078125 3.867188 4.078125 C 3.414062 4.078125 2.957031 4.238281 2.589844 4.566406 C 1.789062 5.28125 1.710938 6.519531 2.417969 7.335938 Z M 22.046875 29.964844"/></g></svg>