<svg xmlns="http://www.w3.org/2000/svg" width="60" viewBox="0 0 60 60" height="60" version="1.0"><defs><clipPath id="a"><path d="M 7.09375 9.097656 L 51.34375 9.097656 L 51.34375 33 L 7.09375 33 Z M 7.09375 9.097656"/></clipPath><clipPath id="b"><path d="M 7.09375 26 L 51.34375 26 L 51.34375 49.597656 L 7.09375 49.597656 Z M 7.09375 26"/></clipPath></defs><g clip-path="url(#a)"><path fill="#FF9100" d="M 8.746094 31.851562 L 29.121094 11.414062 L 49.5 31.847656 C 49.6875 32.039062 49.929688 32.132812 50.175781 32.132812 C 50.421875 32.132812 50.667969 32.039062 50.855469 31.851562 C 51.226562 31.476562 51.226562 30.867188 50.855469 30.492188 L 29.800781 9.378906 C 29.425781 9.007812 28.820312 9.007812 28.449219 9.378906 L 7.394531 30.492188 C 7.019531 30.867188 7.019531 31.476562 7.394531 31.851562 C 7.765625 32.226562 8.371094 32.226562 8.746094 31.851562 Z M 8.746094 31.851562"/></g><g clip-path="url(#b)"><path fill="#FF9100" d="M 29.800781 26.652344 C 29.425781 26.277344 28.820312 26.277344 28.449219 26.652344 L 7.394531 47.765625 C 7.019531 48.140625 7.019531 48.75 7.394531 49.125 C 7.765625 49.5 8.375 49.5 8.746094 49.125 L 29.121094 28.691406 L 49.5 49.125 C 49.6875 49.3125 49.929688 49.40625 50.175781 49.40625 C 50.421875 49.40625 50.667969 49.3125 50.855469 49.125 C 51.226562 48.75 51.226562 48.144531 50.855469 47.769531 Z M 29.800781 26.652344"/></g></svg>