<svg xmlns="http://www.w3.org/2000/svg" width="75" viewBox="0 0 75 60" height="60" version="1.0"><defs><clipPath id="a"><path d="M 19 7.722656 L 41.707031 7.722656 L 41.707031 48.644531 L 19 48.644531 Z M 19 7.722656"/></clipPath><clipPath id="b"><path d="M 3.761719 7.722656 L 26 7.722656 L 26 48.644531 L 3.761719 48.644531 Z M 3.761719 7.722656"/></clipPath><clipPath id="c"><path d="M 52 7.722656 L 73.804688 7.722656 L 73.804688 48.644531 L 52 48.644531 Z M 52 7.722656"/></clipPath><clipPath id="d"><path d="M 35.859375 7.722656 L 58 7.722656 L 58 48.644531 L 35.859375 48.644531 Z M 35.859375 7.722656"/></clipPath></defs><path fill="#FFF" d="M-7.5 -6H82.5V66H-7.5z"/><path fill="#FFF" d="M-7.5 -6H82.5V66H-7.5z"/><path fill="#001E4B" d="M-7.5 -6H82.5V66H-7.5z"/><g clip-path="url(#a)"><path fill="#FF9100" d="M 20.21875 8.9375 L 39.519531 27.929688 L 20.21875 46.925781 C 20.042969 47.101562 19.953125 47.328125 19.953125 47.558594 C 19.953125 47.785156 20.042969 48.015625 20.21875 48.1875 C 20.570312 48.535156 21.144531 48.535156 21.5 48.1875 L 41.441406 28.5625 C 41.792969 28.214844 41.792969 27.648438 41.441406 27.300781 L 21.5 7.675781 C 21.144531 7.328125 20.570312 7.328125 20.21875 7.675781 C 19.863281 8.023438 19.863281 8.585938 20.21875 8.9375 Z M 20.21875 8.9375"/></g><g clip-path="url(#b)"><path fill="#FF9100" d="M 25.125 28.5625 C 25.480469 28.214844 25.480469 27.648438 25.125 27.300781 L 5.1875 7.675781 C 4.832031 7.328125 4.257812 7.328125 3.902344 7.675781 C 3.550781 8.023438 3.550781 8.589844 3.902344 8.9375 L 23.203125 27.929688 L 3.902344 46.925781 C 3.726562 47.101562 3.636719 47.328125 3.636719 47.558594 C 3.636719 47.785156 3.726562 48.015625 3.902344 48.1875 C 4.253906 48.535156 4.832031 48.535156 5.183594 48.1875 Z M 25.125 28.5625"/></g><g clip-path="url(#c)"><path fill="#FF9100" d="M 52.316406 8.9375 L 71.617188 27.929688 L 52.320312 46.925781 C 52.140625 47.101562 52.054688 47.328125 52.054688 47.558594 C 52.054688 47.785156 52.140625 48.015625 52.316406 48.1875 C 52.671875 48.535156 53.246094 48.535156 53.597656 48.1875 L 73.539062 28.5625 C 73.894531 28.214844 73.894531 27.648438 73.539062 27.300781 L 53.597656 7.675781 C 53.246094 7.328125 52.671875 7.328125 52.316406 7.675781 C 51.964844 8.023438 51.964844 8.585938 52.316406 8.9375 Z M 52.316406 8.9375"/></g><g clip-path="url(#d)"><path fill="#FF9100" d="M 57.226562 28.5625 C 57.578125 28.214844 57.578125 27.648438 57.226562 27.300781 L 37.285156 7.675781 C 36.933594 7.328125 36.359375 7.328125 36.003906 7.675781 C 35.652344 8.023438 35.652344 8.589844 36.003906 8.9375 L 55.304688 27.929688 L 36.003906 46.925781 C 35.828125 47.101562 35.738281 47.328125 35.738281 47.558594 C 35.738281 47.785156 35.828125 48.015625 36.003906 48.1875 C 36.355469 48.535156 36.929688 48.535156 37.285156 48.1875 Z M 57.226562 28.5625"/></g></svg>