<svg xmlns="http://www.w3.org/2000/svg" xmlns:xlink="http://www.w3.org/1999/xlink" width="60" viewBox="0 0 60 60" height="60" version="1.0"><defs><clipPath id="a"><path d="M 8.242188 8.496094 L 17.242188 8.496094 L 17.242188 17.496094 L 8.242188 17.496094 Z M 8.242188 8.496094"/></clipPath><clipPath id="b"><path d="M 41.824219 8.496094 L 50.460938 8.496094 L 50.460938 17.496094 L 41.824219 17.496094 Z M 41.824219 8.496094"/></clipPath><clipPath id="c"><path d="M 8.46875 42.394531 L 17.46875 42.394531 L 17.46875 51.265625 L 8.46875 51.265625 Z M 8.46875 42.394531"/></clipPath><clipPath id="d"><path d="M 41.828125 42.5 L 50.59375 42.5 L 50.59375 51.265625 L 41.828125 51.265625 Z M 41.828125 42.5"/></clipPath><g id="e"><path d="M 0 6.289062 L 23.335938 6.289062 L 23.335938 3.382812 L 0 3.382812 Z M 0 6.289062"/></g><g id="f"><path d="M 5.855469 0 L 5.855469 -21.726562 L 3.148438 -21.726562 L 3.148438 0 Z M 5.855469 0"/></g></defs><path fill="#FFF" d="M-6 -6H66V66H-6z"/><path fill="#FFF" d="M-6 -6H66V66H-6z"/><path fill="#001E4B" d="M-6 -6H66V66H-6z"/><g clip-path="url(#a)"><path fill="#FF9100" d="M 10.210938 17.496094 L 8.242188 17.496094 L 8.242188 8.496094 L 17.242188 8.496094 L 17.242188 10.46875 L 10.210938 10.46875 Z M 10.210938 17.496094"/></g><g clip-path="url(#b)"><path fill="#FF9100" d="M 48.855469 17.496094 L 50.824219 17.496094 L 50.824219 8.496094 L 41.824219 8.496094 L 41.824219 10.46875 L 48.855469 10.46875 Z M 48.855469 17.496094"/></g><g clip-path="url(#c)"><path fill="#FF9100" d="M 10.4375 42.394531 L 8.46875 42.394531 L 8.46875 51.394531 L 17.46875 51.394531 L 17.46875 49.425781 L 10.4375 49.425781 Z M 10.4375 42.394531"/></g><g clip-path="url(#d)"><path fill="#FF9100" d="M 48.855469 42.5 L 50.828125 42.5 L 50.828125 51.5 L 41.828125 51.5 L 41.828125 49.53125 L 48.855469 49.53125 Z M 48.855469 42.5"/></g><g fill="#FFF"><use x="17.747" y="13.179" xmlns:xlink="http://www.w3.org/1999/xlink" xlink:href="#e" xlink:type="simple" xlink:actuate="onLoad" xlink:show="embed"/></g><g fill="#FFF"><use x="24.572" y="42.926" xmlns:xlink="http://www.w3.org/1999/xlink" xlink:href="#f" xlink:type="simple" xlink:actuate="onLoad" xlink:show="embed"/></g></svg>