<svg xmlns="http://www.w3.org/2000/svg" width="90" viewBox="0 0 90 75" height="75" version="1.0"><defs><clipPath id="a"><path d="M 29 19.5 L 48.460938 19.5 L 48.460938 55.488281 L 29 55.488281 Z M 29 19.5"/></clipPath><clipPath id="b"><path d="M 15.601562 19.5 L 35 19.5 L 35 55.488281 L 15.601562 55.488281 Z M 15.601562 19.5"/></clipPath><clipPath id="c"><path d="M 58 19.5 L 76.945312 19.5 L 76.945312 55.488281 L 58 55.488281 Z M 58 19.5"/></clipPath><clipPath id="d"><path d="M 44.085938 19.5 L 63 19.5 L 63 55.488281 L 44.085938 55.488281 Z M 44.085938 19.5"/></clipPath></defs><path fill="#001E4B" d="M 44.851562 0.976562 C 24.761719 0.976562 8.476562 17.261719 8.476562 37.351562 C 8.476562 57.4375 24.761719 73.726562 44.851562 73.726562 C 64.9375 73.726562 81.226562 57.4375 81.226562 37.351562 C 81.226562 17.261719 64.9375 0.976562 44.851562 0.976562 Z M 44.851562 0.976562"/><g clip-path="url(#a)"><path fill="#FF9100" d="M 29.921875 20.835938 L 46.570312 37.410156 L 29.921875 53.984375 C 29.769531 54.136719 29.691406 54.335938 29.691406 54.535156 C 29.691406 54.734375 29.769531 54.933594 29.921875 55.085938 C 30.226562 55.390625 30.722656 55.390625 31.027344 55.085938 L 48.230469 37.960938 C 48.535156 37.660156 48.535156 37.164062 48.230469 36.863281 L 31.027344 19.738281 C 30.722656 19.433594 30.226562 19.433594 29.921875 19.738281 C 29.613281 20.039062 29.613281 20.53125 29.921875 20.835938 Z M 29.921875 20.835938"/></g><g clip-path="url(#b)"><path fill="#FF9100" d="M 34.15625 37.960938 C 34.460938 37.660156 34.460938 37.164062 34.15625 36.863281 L 16.953125 19.738281 C 16.648438 19.433594 16.152344 19.433594 15.847656 19.738281 C 15.539062 20.039062 15.539062 20.535156 15.847656 20.835938 L 32.496094 37.410156 L 15.847656 53.984375 C 15.691406 54.136719 15.617188 54.335938 15.617188 54.535156 C 15.617188 54.734375 15.691406 54.933594 15.84375 55.085938 C 16.148438 55.390625 16.644531 55.390625 16.949219 55.085938 Z M 34.15625 37.960938"/></g><g clip-path="url(#c)"><path fill="#FF9100" d="M 58.40625 20.835938 L 75.058594 37.410156 L 58.410156 53.984375 C 58.253906 54.136719 58.179688 54.335938 58.179688 54.535156 C 58.179688 54.734375 58.253906 54.933594 58.40625 55.085938 C 58.710938 55.390625 59.207031 55.390625 59.511719 55.085938 L 76.714844 37.960938 C 77.023438 37.660156 77.023438 37.164062 76.714844 36.863281 L 59.511719 19.738281 C 59.207031 19.433594 58.710938 19.433594 58.40625 19.738281 C 58.101562 20.039062 58.101562 20.53125 58.40625 20.835938 Z M 58.40625 20.835938"/></g><g clip-path="url(#d)"><path fill="#FF9100" d="M 62.640625 37.960938 C 62.949219 37.660156 62.949219 37.164062 62.640625 36.863281 L 45.4375 19.738281 C 45.132812 19.433594 44.636719 19.433594 44.332031 19.738281 C 44.027344 20.039062 44.027344 20.535156 44.332031 20.835938 L 60.984375 37.410156 L 44.332031 53.984375 C 44.179688 54.136719 44.101562 54.335938 44.101562 54.535156 C 44.101562 54.734375 44.179688 54.933594 44.332031 55.085938 C 44.636719 55.390625 45.132812 55.390625 45.4375 55.085938 Z M 62.640625 37.960938"/></g></svg>