<svg xmlns="http://www.w3.org/2000/svg" xmlns:xlink="http://www.w3.org/1999/xlink" width="60" viewBox="0 0 60 60" height="60" version="1.0"><defs><clipPath id="a"><path d="M 8.765625 7.050781 L 20.015625 7.050781 L 20.015625 18.300781 L 8.765625 18.300781 Z M 8.765625 7.050781"/></clipPath><clipPath id="c"><path d="M 39.972656 7.050781 L 51.105469 7.050781 L 51.105469 18.300781 L 39.972656 18.300781 Z M 39.972656 7.050781"/></clipPath><clipPath id="d"><path d="M 39.972656 41.6875 L 51.105469 41.6875 L 51.105469 52.820312 L 39.972656 52.820312 Z M 39.972656 41.6875"/></clipPath><clipPath id="e"><path d="M 8.765625 41.6875 L 20.015625 41.6875 L 20.015625 52.820312 L 8.765625 52.820312 Z M 8.765625 41.6875"/></clipPath><g id="b"><path d="M 0 5.546875 L 20.570312 5.546875 L 20.570312 2.980469 L 0 2.980469 Z M 0 5.546875"/></g><g id="f"><path d="M 5.265625 0 L 5.265625 -19.53125 L 2.832031 -19.53125 L 2.832031 0 Z M 5.265625 0"/></g></defs><path fill="#FFF" d="M-6 -6H66V66H-6z"/><path fill="#FFF" d="M-6 -6H66V66H-6z"/><path fill="#001E4B" d="M-6 -6H66V66H-6z"/><g clip-path="url(#a)"><path fill="#FF9100" d="M 11.230469 18.300781 L 8.765625 18.300781 L 8.765625 7.050781 L 20.015625 7.050781 L 20.015625 9.511719 L 11.230469 9.511719 Z M 11.230469 18.300781"/></g><g fill="#FFF"><use x="19.789" y="14.62" xmlns:xlink="http://www.w3.org/1999/xlink" xlink:href="#b" xlink:type="simple" xlink:actuate="onLoad" xlink:show="embed"/></g><g clip-path="url(#c)"><path fill="#FF9100" d="M 48.761719 18.300781 L 51.222656 18.300781 L 51.222656 7.050781 L 39.972656 7.050781 L 39.972656 9.511719 L 48.761719 9.511719 Z M 48.761719 18.300781"/></g><g clip-path="url(#d)"><path fill="#FF9100" d="M 48.761719 41.6875 L 51.222656 41.6875 L 51.222656 52.9375 L 39.972656 52.9375 L 39.972656 50.476562 L 48.761719 50.476562 Z M 48.761719 41.6875"/></g><g clip-path="url(#e)"><path fill="#FF9100" d="M 11.230469 41.6875 L 8.765625 41.6875 L 8.765625 52.9375 L 20.015625 52.9375 L 20.015625 50.476562 L 11.230469 50.476562 Z M 11.230469 41.6875"/></g><g fill="#FFF"><use x="26.251" y="42.94" xmlns:xlink="http://www.w3.org/1999/xlink" xlink:href="#f" xlink:type="simple" xlink:actuate="onLoad" xlink:show="embed"/></g></svg>