<svg xmlns="http://www.w3.org/2000/svg" width="30" viewBox="0 0 30 30" height="30" version="1.0"><defs><clipPath id="a"><path d="M 9 8.003906 L 15.691406 8.003906 L 15.691406 21 L 9 21 Z M 9 8.003906"/></clipPath><clipPath id="b"><path d="M 4.429688 8.003906 L 12 8.003906 L 12 21 L 4.429688 21 Z M 4.429688 8.003906"/></clipPath><clipPath id="c"><path d="M 19 8.023438 L 25.628906 8.023438 L 25.628906 21.0625 L 19 21.0625 Z M 19 8.023438"/></clipPath><clipPath id="d"><path d="M 14.300781 8.023438 L 21 8.023438 L 21 21.0625 L 14.300781 21.0625 Z M 14.300781 8.023438"/></clipPath></defs><path fill="#001E4B" d="M 14.84375 0.601562 C 7.226562 0.601562 1.050781 6.773438 1.050781 14.390625 C 1.050781 22.007812 7.226562 28.179688 14.84375 28.179688 C 22.457031 28.179688 28.632812 22.007812 28.632812 14.390625 C 28.632812 6.773438 22.457031 0.601562 14.84375 0.601562 Z M 14.84375 0.601562"/><g clip-path="url(#a)"><path fill="#FF9100" d="M 9.519531 8.449219 L 15.378906 14.464844 L 9.519531 20.480469 C 9.464844 20.535156 9.4375 20.609375 9.4375 20.679688 C 9.4375 20.753906 9.464844 20.824219 9.519531 20.878906 C 9.625 20.988281 9.800781 20.988281 9.90625 20.878906 L 15.960938 14.664062 C 16.070312 14.554688 16.070312 14.375 15.960938 14.265625 L 9.90625 8.050781 C 9.800781 7.9375 9.625 7.9375 9.519531 8.050781 C 9.410156 8.160156 9.410156 8.335938 9.519531 8.449219 Z M 9.519531 8.449219"/></g><g clip-path="url(#b)"><path fill="#FF9100" d="M 11.007812 14.664062 C 11.117188 14.554688 11.117188 14.375 11.007812 14.265625 L 4.953125 8.050781 C 4.847656 7.9375 4.671875 7.9375 4.566406 8.050781 C 4.457031 8.160156 4.457031 8.339844 4.566406 8.449219 L 10.425781 14.464844 L 4.566406 20.480469 C 4.511719 20.535156 4.484375 20.609375 4.484375 20.679688 C 4.484375 20.753906 4.511719 20.824219 4.566406 20.878906 C 4.671875 20.988281 4.847656 20.988281 4.953125 20.878906 Z M 11.007812 14.664062"/></g><g clip-path="url(#c)"><path fill="#FF9100" d="M 19.386719 8.511719 L 25.246094 14.527344 L 19.386719 20.539062 C 19.335938 20.59375 19.308594 20.667969 19.308594 20.738281 C 19.308594 20.8125 19.335938 20.882812 19.386719 20.9375 C 19.496094 21.050781 19.667969 21.050781 19.777344 20.9375 L 25.832031 14.726562 C 25.9375 14.617188 25.9375 14.4375 25.832031 14.328125 L 19.777344 8.113281 C 19.667969 8.003906 19.496094 8.003906 19.386719 8.113281 C 19.28125 8.222656 19.28125 8.402344 19.386719 8.511719 Z M 19.386719 8.511719"/></g><g clip-path="url(#d)"><path fill="#FF9100" d="M 20.878906 14.726562 C 20.984375 14.617188 20.984375 14.4375 20.878906 14.328125 L 14.824219 8.113281 C 14.71875 8.003906 14.542969 8.003906 14.433594 8.113281 C 14.328125 8.222656 14.328125 8.402344 14.433594 8.511719 L 20.292969 14.527344 L 14.433594 20.539062 C 14.382812 20.59375 14.355469 20.667969 14.355469 20.738281 C 14.355469 20.8125 14.382812 20.882812 14.433594 20.9375 C 14.542969 21.050781 14.714844 21.050781 14.824219 20.9375 Z M 20.878906 14.726562"/></g></svg>